<svg width="28" height="28" viewBox="0 0 28 28" fill="none" xmlns="http://www.w3.org/2000/svg">
<path d="M14.0575 28C6.30466 28 0 21.7178 0 14C0 6.28222 6.30803 0 14.0575 0C15.0072 0 15.957 0.0939147 16.8831 0.281744C17.3917 0.385721 17.9002 0.516531 18.3919 0.677528C18.6412 0.758026 18.7759 1.023 18.695 1.2712C18.6142 1.51941 18.3482 1.65357 18.0989 1.57307C17.6409 1.42549 17.166 1.30139 16.6945 1.20412C15.8324 1.02971 14.9466 0.939147 14.0575 0.939147C6.82668 0.939147 0.946371 6.79875 0.946371 14C0.946371 21.2012 6.83005 27.0575 14.0575 27.0575C21.2849 27.0575 27.172 21.1979 27.172 14C27.172 11.8567 26.6399 9.73023 25.6329 7.85194C25.5082 7.62386 25.5958 7.33876 25.8282 7.21466C26.0572 7.09056 26.3435 7.17777 26.4681 7.4092C27.5492 9.42166 28.1183 11.7024 28.1183 14C28.1183 21.7211 21.8103 28 14.0609 28H14.0575Z" fill="white"/>
<path d="M23.5817 4.82323C23.4638 4.82323 23.3426 4.77962 23.2516 4.68906C22.9148 4.36036 22.5579 4.04843 22.1908 3.75662C21.9079 3.5319 21.6115 3.32059 21.3117 3.11934C21.0928 2.97512 21.0356 2.68331 21.1804 2.4653C21.3252 2.24728 21.6182 2.19026 21.8371 2.33449C22.1604 2.54915 22.477 2.77723 22.7801 3.01537C23.1742 3.3273 23.5581 3.66271 23.9151 4.01489C24.1003 4.19601 24.1037 4.49452 23.9218 4.679C23.8309 4.77291 23.7063 4.81987 23.585 4.81987L23.5817 4.82323Z" fill="white"/>
<path d="M10.868 18.357C13.2842 18.357 15.2429 16.4063 15.2429 14C15.2429 11.5937 13.2842 9.64307 10.868 9.64307C8.45186 9.64307 6.49316 11.5937 6.49316 14C6.49316 16.4063 8.45186 18.357 10.868 18.357Z" fill="white"/>
<path d="M17.2162 18.357C18.3062 18.357 19.1898 16.4063 19.1898 14C19.1898 11.5937 18.3062 9.64307 17.2162 9.64307C16.1263 9.64307 15.2427 11.5937 15.2427 14C15.2427 16.4063 16.1263 18.357 17.2162 18.357Z" fill="white"/>
<path d="M20.4057 17.4078C21.0772 17.4078 21.6215 15.8821 21.6215 14C21.6215 12.118 21.0772 10.5923 20.4057 10.5923C19.7343 10.5923 19.1899 12.118 19.1899 14C19.1899 15.8821 19.7343 17.4078 20.4057 17.4078Z" fill="white"/>
</svg>
