<svg width="49" height="45" viewBox="0 0 49 45" fill="none" xmlns="http://www.w3.org/2000/svg">
<path d="M39.4208 17.5821C34.5578 17.5821 30.6011 13.6383 30.6011 8.79104C30.6011 3.94383 34.5578 0 39.4208 0C44.2838 0 48.2405 3.94383 48.2405 8.79104C48.2405 13.6383 44.2838 17.5821 39.4208 17.5821ZM39.4208 1.45708C35.3618 1.45708 32.0629 4.74522 32.0629 8.79104C32.0629 12.8369 35.3618 16.125 39.4208 16.125C43.4798 16.125 46.7787 12.8369 46.7787 8.79104C46.7787 4.74522 43.4798 1.45708 39.4208 1.45708Z" fill="#3C82F7"/>
<path d="M37.3986 44.7711C33.6514 44.7711 30.6011 41.7306 30.6011 37.9957C30.6011 34.2607 33.6514 31.2202 37.3986 31.2202C41.1457 31.2202 44.1961 34.2607 44.1961 37.9957C44.1961 41.7306 41.1457 44.7711 37.3986 44.7711ZM37.3986 32.8085C34.5285 32.8085 32.1945 35.1349 32.1945 37.9957C32.1945 40.8564 34.5285 43.1828 37.3986 43.1828C40.2686 43.1828 42.6027 40.8564 42.6027 37.9957C42.6027 35.1349 40.2686 32.8085 37.3986 32.8085Z" fill="#3C82F7"/>
<path d="M8.81972 32.8084C3.9567 32.8084 0 28.8646 0 24.0174C0 19.1701 3.9567 15.2263 8.81972 15.2263C13.6828 15.2263 17.6394 19.1701 17.6394 24.0174C17.6394 28.8646 13.6828 32.8084 8.81972 32.8084ZM8.81972 16.6834C4.7607 16.6834 1.46183 19.9715 1.46183 24.0174C1.46183 28.0632 4.7607 31.3513 8.81972 31.3513C12.8787 31.3513 16.1776 28.0632 16.1776 24.0174C16.1776 19.9715 12.8787 16.6834 8.81972 16.6834Z" fill="#3C82F7"/>
<path d="M33.1059 12.5648C32.9354 12.2005 32.4968 12.0451 32.1314 12.2199L16.0171 19.821V21.4335L32.7599 13.5361C33.1254 13.3662 33.2813 12.929 33.1059 12.5648Z" fill="#3C82F7"/>
<path d="M32.1021 34.6928L16.1243 26.8101V28.034H15.3057L31.4492 35.9994C31.5515 36.0528 31.6636 36.0771 31.7708 36.0771C32.0388 36.0771 32.297 35.9265 32.4286 35.6739C32.6089 35.3145 32.4578 34.8774 32.0972 34.6977L32.1021 34.6928Z" fill="#3C82F7"/>
</svg>
