<svg width="51" height="50" viewBox="0 0 51 50" fill="none" xmlns="http://www.w3.org/2000/svg">
<path d="M11.3761 41.9124C10.3086 41.9124 9.24119 41.5068 8.42733 40.6956C7.63706 39.9079 7.20654 38.8675 7.20654 37.7565C7.20654 36.6455 7.64296 35.5991 8.42733 34.8173C10.055 33.1949 12.703 33.1949 14.3248 34.8173C15.1151 35.605 15.5456 36.6455 15.5456 37.7565C15.5456 38.8675 15.1092 39.9138 14.3248 40.6956C13.511 41.5068 12.4435 41.9124 11.3761 41.9124ZM11.3761 35.364C10.7333 35.364 10.1317 35.6109 9.6776 36.0635C9.22349 36.5161 8.97579 37.1157 8.97579 37.7565C8.97579 38.3972 9.22349 38.9968 9.6776 39.4494C10.1317 39.902 10.7333 40.1489 11.3761 40.1489C12.0189 40.1489 12.6204 39.902 13.0746 39.4494C13.5287 38.9968 13.7764 38.3972 13.7764 37.7565C13.7764 37.1157 13.5287 36.5161 13.0746 36.0635C12.6204 35.6109 12.0189 35.364 11.3761 35.364Z" fill="#3C82F7"/>
<path d="M20.0399 30.0032C19.8158 30.0032 19.5858 29.915 19.4148 29.7446C19.0668 29.3977 19.0668 28.8393 19.4148 28.4984L41.9314 6.05491C42.2794 5.70809 42.8396 5.70809 43.1817 6.05491C43.5297 6.40173 43.5297 6.96017 43.1817 7.30111L20.665 29.7446C20.494 29.915 20.264 30.0032 20.0399 30.0032Z" fill="#3C82F7"/>
<path d="M15.9645 49.084C11.8776 49.084 7.7906 47.5321 4.67672 44.4342C1.56284 41.3364 0 37.4332 0 33.1831C0 28.9331 1.6631 24.9358 4.67672 21.932C9.15293 17.4704 15.7463 16.0772 21.6261 18.3051L39.991 0L48.8962 0.293916L50.3234 14.1962L45.7056 13.4496L45.7646 18.7871L40.6574 18.4227L40.852 23.5309L35.5914 22.8432L30.8911 27.5282C33.1263 33.3889 31.7286 39.9608 27.2523 44.4225C24.1385 47.5262 20.0515 49.0722 15.9645 49.0722V49.084ZM15.9409 19.0281C12.2609 19.0281 8.65164 20.4624 5.92699 23.1782C0.395134 28.6921 0.395134 37.6683 5.92699 43.1822C11.4588 48.696 20.4643 48.696 25.9962 43.1822C30.1009 39.0909 31.2921 33.0009 29.0334 27.6634L28.8034 27.1167L34.9545 20.9856L39.0002 21.5147L38.8056 16.524L43.9659 16.8943L43.9069 11.3804L48.3241 12.0917L47.2921 2.01039L40.6987 1.79289L22.0449 20.386L21.4964 20.1568C19.6977 19.3985 17.8105 19.0281 15.9409 19.0281Z" fill="#3C82F7"/>
</svg>
