<svg width="57" height="34" viewBox="0 0 57 34" fill="none" xmlns="http://www.w3.org/2000/svg">
<path d="M28.2562 28.2469C21.5528 28.2469 16.0991 23.0148 16.0991 16.588C16.0991 10.1612 21.5528 4.9292 28.2562 4.9292C34.9596 4.9292 40.4132 10.1612 40.4132 16.588C40.4132 23.0148 34.9596 28.2469 28.2562 28.2469ZM28.2562 6.62791C22.4958 6.62791 17.8034 11.0955 17.8034 16.588C17.8034 22.0806 22.4901 26.5482 28.2562 26.5482C34.0222 26.5482 38.7089 22.0806 38.7089 16.588C38.7089 11.0955 34.0222 6.62791 28.2562 6.62791Z" fill="#3C82F7"/>
<path d="M28.2566 33.1731C21.5134 33.1731 14.7759 30.7212 9.64041 25.812L0 16.5879L9.64041 7.36393C19.9057 -2.45464 36.6074 -2.45464 46.8727 7.36393L56.5131 16.5879L46.8727 25.812C41.7429 30.7212 34.9998 33.1731 28.2566 33.1731ZM2.45982 16.5879L10.822 24.5832C20.434 33.7789 36.0791 33.7789 45.6911 24.5832L54.0533 16.5879L45.6911 8.59266C36.0791 -0.603044 20.434 -0.603044 10.822 8.59266L2.45982 16.5879Z" fill="#3C82F7"/>
<path d="M28.2563 22.6864C24.7626 22.6864 21.9165 19.9515 21.9165 16.5937C21.9165 13.2359 24.7569 10.501 28.2563 10.501C31.7557 10.501 34.5962 13.2359 34.5962 16.5937C34.5962 19.9515 31.7557 22.6864 28.2563 22.6864ZM28.2563 12.194C25.7 12.194 23.6208 14.1645 23.6208 16.588C23.6208 19.0115 25.7 20.982 28.2563 20.982C30.8127 20.982 32.8919 19.0115 32.8919 16.588C32.8919 14.1645 30.8127 12.194 28.2563 12.194Z" fill="#3C82F7"/>
</svg>
