<svg width="54" height="53" viewBox="0 0 54 53" fill="none" xmlns="http://www.w3.org/2000/svg">
<path d="M49.0171 16.4137C47.8302 16.4137 46.7371 16.8346 45.8832 17.5407L31.9306 7.43528C32.381 6.69643 32.6437 5.83132 32.6437 4.90541C32.6437 2.20253 30.4387 0 27.7223 0C25.0059 0 22.8009 2.19785 22.8009 4.90541C22.8009 5.62556 22.9604 6.3083 23.2419 6.93024L8.28994 17.7558C7.40793 16.9281 6.22567 16.4137 4.92142 16.4137C2.20971 16.4137 0 18.6116 0 21.3191C0 24.0267 2.20502 26.2246 4.92142 26.2246C5.23575 26.2246 5.5407 26.1918 5.83627 26.1357L11.2738 42.8207C9.59888 43.6016 8.43538 45.2944 8.43538 47.2584C8.43538 49.9613 10.6404 52.1639 13.3568 52.1639C15.848 52.1639 17.9123 50.3074 18.2313 47.9084H35.6838C36.0028 50.3074 38.0624 52.1639 40.5583 52.1639C43.27 52.1639 45.4797 49.966 45.4797 47.2584C45.4797 45.4861 44.5273 43.9336 43.1105 43.0732L48.609 26.2012C48.7403 26.2105 48.8764 26.2199 49.0124 26.2199C51.7241 26.2199 53.9339 24.022 53.9339 21.3145C53.9339 18.6069 51.7288 16.4091 49.0124 16.4091L49.0171 16.4137ZM49.0641 24.817C49.0641 24.817 49.0312 24.817 49.0171 24.817C48.5386 24.817 48.0882 24.7188 47.6707 24.5504C47.3047 24.4008 46.9716 24.1857 46.6807 23.9238C46.3289 23.6105 46.0427 23.2271 45.841 22.8015C45.7237 22.549 45.6299 22.2871 45.5736 22.0066C45.5266 21.7821 45.5032 21.553 45.5032 21.3145C45.5032 21.076 45.5266 20.8328 45.5782 20.6037C45.6674 20.1688 45.841 19.7666 46.0755 19.4112C46.3383 19.0091 46.6761 18.6677 47.0748 18.4011C47.6331 18.0317 48.2993 17.8166 49.0171 17.8166C50.9547 17.8166 52.5311 19.3878 52.5311 21.3191C52.5311 23.2504 50.9829 24.7936 49.0687 24.817H49.0641ZM24.2177 4.90541C24.2177 2.97411 25.794 1.40288 27.7316 1.40288C29.6693 1.40288 31.2456 2.97411 31.2456 4.90541C31.2456 5.52268 31.0814 6.10722 30.7999 6.61225C30.5653 7.02844 30.251 7.38852 29.8757 7.67844C29.7772 7.75326 29.6739 7.82341 29.566 7.88888C29.1673 8.13204 28.7216 8.29571 28.243 8.36586C28.0788 8.38924 27.9099 8.40794 27.7363 8.40794C27.5252 8.40794 27.3235 8.38456 27.1264 8.35183C26.6479 8.26766 26.2069 8.08996 25.8175 7.83276C25.5782 7.67844 25.3624 7.49139 25.1654 7.28096C24.8464 6.93492 24.593 6.52808 24.4335 6.07916C24.3021 5.70973 24.2271 5.31693 24.2271 4.90541H24.2177ZM24.016 8.10866C24.3913 8.54356 24.8417 8.9083 25.3483 9.18888C24.1098 12.8317 22.9932 16.1285 21.9845 19.1073H23.4764C24.5555 15.918 25.6345 12.7288 26.6667 9.68924C27.0092 9.76406 27.3657 9.81083 27.7316 9.81083C28.0507 9.81083 28.3556 9.77809 28.6559 9.72198L31.5693 19.1119H33.0425L29.9836 9.25903C30.3683 9.05795 30.7202 8.8101 31.0392 8.52485L44.9355 18.5882C44.5367 19.1821 44.2693 19.8648 44.1567 20.599L33.4835 20.5335V20.5148H32.0056V20.5242L30.0868 20.5148H18.0202C17.9076 20.5148 17.8044 20.4868 17.7105 20.44L9.75839 20.3932C9.65048 19.8414 9.44875 19.327 9.17664 18.8594L24.0113 8.11801L24.016 8.10866ZM40.5677 50.7563C38.8506 50.7563 37.4244 49.5218 37.1194 47.9038C37.0819 47.6933 37.0584 47.4782 37.0584 47.2584C37.0584 46.9966 37.0913 46.7441 37.1429 46.5009C37.1992 46.253 37.2789 46.0146 37.3868 45.7901C37.5886 45.3599 37.8747 44.9764 38.2219 44.6631C38.5362 44.3825 38.9022 44.1534 39.301 43.9991C39.6951 43.8448 40.122 43.7606 40.5677 43.7606C40.6146 43.7606 40.6568 43.7653 40.7037 43.7653C40.9383 43.7746 41.1635 43.8073 41.384 43.8588C41.8578 43.971 42.2895 44.1815 42.6695 44.462C43.5234 45.1027 44.0816 46.1174 44.0816 47.2631C44.0816 49.1944 42.5053 50.7656 40.5677 50.7656V50.7563ZM13.3709 50.7563C11.4333 50.7563 9.85691 49.1851 9.85691 47.2538C9.85691 45.9164 10.6169 44.7473 11.7288 44.1627C12.137 43.9476 12.5968 43.8073 13.08 43.7699C13.1738 43.7606 13.2723 43.7559 13.3709 43.7559C13.5069 43.7559 13.6383 43.7653 13.7697 43.7793C14.2482 43.8354 14.6939 43.985 15.0927 44.2095C15.4398 44.4059 15.7448 44.6584 16.0075 44.953C16.3172 45.3084 16.5611 45.7246 16.7112 46.1782C16.7441 46.2811 16.7722 46.3887 16.8004 46.4962C16.8567 46.7394 16.8848 46.9919 16.8848 47.2538C16.8848 47.4736 16.8614 47.6887 16.8238 47.8991C16.5189 49.5218 15.088 50.7516 13.3756 50.7516L13.3709 50.7563ZM17.8841 45.3084L26.0662 39.234L24.8839 38.3595L17.1382 44.1113C16.6972 43.5876 16.1529 43.162 15.5337 42.8581C16.4063 40.1879 17.6308 36.4983 19.0382 32.299L26.0802 37.4757L26.0662 37.485L27.2484 38.3595L27.2672 38.3455L36.2374 44.939C35.9794 45.416 35.8058 45.9444 35.7166 46.4962H18.2266C18.1609 46.08 18.0483 45.6825 17.8841 45.3038V45.3084ZM37.0725 43.812L28.4448 37.471L35.6228 32.14L38.8881 42.6523C38.1985 42.9048 37.5792 43.3023 37.0725 43.812ZM27.2625 36.5965L19.5121 30.8962C20.4692 28.0343 21.5013 24.976 22.5522 21.8663L32.456 21.9271L35.1865 30.7185L27.2672 36.5965H27.2625ZM4.94018 24.817C3.00258 24.817 1.42623 23.2458 1.42623 21.3145C1.42623 19.3832 3.00258 17.8119 4.94018 17.8119C5.77528 17.8119 6.54 18.1065 7.14521 18.5929C7.51115 18.8875 7.82078 19.2569 8.04129 19.6778C8.15857 19.8976 8.25241 20.1314 8.31809 20.3745C8.40254 20.6738 8.44945 20.9871 8.44945 21.3145C8.44945 21.4735 8.43538 21.6278 8.41661 21.7774C8.37908 22.058 8.30871 22.3292 8.20549 22.5864C8.03191 23.0307 7.76918 23.4328 7.44077 23.7648C7.23434 23.9753 6.99508 24.1576 6.74174 24.312C6.34296 24.5504 5.89257 24.7141 5.41403 24.7796C5.25921 24.7983 5.0997 24.817 4.94018 24.817ZM7.18274 25.6728C7.70819 25.4015 8.18203 25.0368 8.57612 24.6019L16.6831 30.5595L17.1522 29.1613L9.3643 23.4375C9.61295 22.9278 9.77716 22.3713 9.83346 21.7868L21.0556 21.8569C20.4926 23.517 19.9672 25.0789 19.4792 26.5285L19.5121 26.5519L18.3392 30.0404L17.87 31.4386L15.7026 37.8732H15.6932C15.0739 39.7343 14.586 41.2307 14.2013 42.4278C13.9292 42.3811 13.6524 42.353 13.3662 42.353C13.1175 42.353 12.8736 42.3764 12.6343 42.4138L7.17805 25.6774L7.18274 25.6728ZM41.8203 42.5167C41.4215 42.4091 40.9993 42.3484 40.5677 42.3484C40.4692 42.3484 40.3706 42.3577 40.2674 42.3624L39.1321 38.7102L36.7863 31.2703L36.3406 29.8533L35.5431 27.3282H35.5947L33.9198 21.9364L44.1473 21.9972C44.2318 22.5864 44.4147 23.1476 44.6915 23.6526L37.5323 28.9649L37.978 30.3818L45.5313 24.7749C46.0099 25.2566 46.5916 25.6307 47.2343 25.8832L41.8109 42.5167H41.8203Z" fill="#3C82F7"/>
</svg>
