<svg width="40" height="40" viewBox="0 0 40 40" fill="none" xmlns="http://www.w3.org/2000/svg">
<path d="M21.5083 36.8629C16.7693 36.8629 12.0345 35.0652 8.42738 31.4699C4.93433 27.9882 3.0083 23.3572 3.0083 18.4315C3.0083 13.5057 4.93433 8.87472 8.42738 5.39303C15.6415 -1.79768 27.3751 -1.79768 34.5893 5.39303C41.8035 12.5837 41.8035 24.2792 34.5893 31.4699C30.9822 35.0652 26.2432 36.8629 21.5083 36.8629ZM21.5083 1.26301C17.0945 1.26301 12.6807 2.93859 9.32281 6.28556C6.0663 9.53148 4.27543 13.8425 4.27543 18.4315C4.27543 23.0204 6.0663 27.3314 9.32281 30.5774C16.0428 37.2755 26.9739 37.2713 33.6939 30.5774C36.9504 27.3314 38.7413 23.0204 38.7413 18.4315C38.7413 13.8425 36.9504 9.53148 33.6939 6.28556C30.336 2.93859 25.9222 1.26301 21.5083 1.26301Z" fill="#3C82F7"/>
<path d="M0.634619 39.873C0.474116 39.873 0.30939 39.8099 0.186901 39.6878C-0.0623004 39.4394 -0.0623004 39.0394 0.186901 38.7953L8.43167 30.5773C8.68087 30.3289 9.08213 30.3289 9.3271 30.5773C9.5763 30.8257 9.5763 31.2257 9.3271 31.4698L1.08234 39.6878C0.959848 39.8099 0.795121 39.873 0.634619 39.873Z" fill="#3C82F7"/>
<path d="M9.70729 18.684C9.35672 18.684 9.07373 18.4019 9.07373 18.0525C9.07373 11.5185 14.4083 6.20127 20.9636 6.20127C21.3142 6.20127 21.5972 6.48335 21.5972 6.83278C21.5972 7.18221 21.3142 7.46428 20.9636 7.46428C15.1053 7.46428 10.3409 12.2132 10.3409 18.0525C10.3409 18.4019 10.0579 18.684 9.70729 18.684Z" fill="#3C82F7"/>
</svg>
