<svg width="60" height="60" viewBox="0 0 60 60" fill="none" xmlns="http://www.w3.org/2000/svg">
<path d="M29.9043 43.6229C22.2578 43.6229 16.043 37.4226 16.043 29.8067C16.043 22.1908 22.2635 15.9905 29.9043 15.9905C37.545 15.9905 43.7655 22.1908 43.7655 29.8067C43.7655 37.4226 37.545 43.6229 29.9043 43.6229ZM29.9043 17.6892C23.2008 17.6892 17.7472 23.1251 17.7472 29.8067C17.7472 36.4883 23.2008 41.9242 29.9043 41.9242C36.6077 41.9242 42.0613 36.4883 42.0613 29.8067C42.0613 23.1251 36.6077 17.6892 29.9043 17.6892Z" fill="#3C82F7"/>
<path d="M29.9039 16.9532C29.4324 16.9532 29.0518 16.5738 29.0518 16.1038V0.849357C29.0518 0.37938 29.4324 0 29.9039 0C30.3754 0 30.756 0.37938 30.756 0.849357V16.1038C30.756 16.5738 30.3754 16.9532 29.9039 16.9532Z" fill="#3C82F7"/>
<path d="M29.9039 59.6192C29.4324 59.6192 29.0518 59.2398 29.0518 58.7698V43.5154C29.0518 43.0454 29.4324 42.666 29.9039 42.666C30.3754 42.666 30.756 43.0454 30.756 43.5154V58.7698C30.756 59.2398 30.3754 59.6192 29.9039 59.6192Z" fill="#3C82F7"/>
<path d="M58.9557 30.656H43.6514C43.1799 30.656 42.7993 30.2766 42.7993 29.8066C42.7993 29.3367 43.1799 28.9573 43.6514 28.9573H58.9557C59.4272 28.9573 59.8078 29.3367 59.8078 29.8066C59.8078 30.2766 59.4272 30.656 58.9557 30.656Z" fill="#3C82F7"/>
<path d="M16.1563 30.656H0.852128C0.380617 30.656 0 30.2766 0 29.8066C0 29.3367 0.380617 28.9573 0.852128 28.9573H16.1563C16.6279 28.9573 17.0085 29.3367 17.0085 29.8066C17.0085 30.2766 16.6279 30.656 16.1563 30.656Z" fill="#3C82F7"/>
<path d="M43.6577 16.9531C43.4419 16.9531 43.2203 16.8681 43.0556 16.7039C42.7204 16.3698 42.7204 15.8319 43.0556 15.5035L49.8499 8.73127C50.185 8.39719 50.7247 8.39719 51.0542 8.73127C51.3894 9.06535 51.3894 9.60328 51.0542 9.9317L44.2599 16.7039C44.0952 16.8681 43.8736 16.9531 43.6577 16.9531Z" fill="#3C82F7"/>
<path d="M9.36234 51.1368C9.14646 51.1368 8.92491 51.0519 8.76017 50.8877C8.425 50.5536 8.425 50.0157 8.76017 49.6873L16.293 42.179C16.6281 41.8449 17.1678 41.8449 17.4973 42.179C17.8325 42.513 17.8325 43.051 17.4973 43.3794L9.96451 50.8877C9.79976 51.0519 9.57821 51.1368 9.36234 51.1368Z" fill="#3C82F7"/>
<path d="M50.4464 51.1368C50.2305 51.1368 50.009 51.0519 49.8442 50.8877L42.3114 43.3794C41.9763 43.0453 41.9763 42.5074 42.3114 42.179C42.6466 41.8505 43.1863 41.8449 43.5158 42.179L51.0486 49.6873C51.3838 50.0214 51.3838 50.5593 51.0486 50.8877C50.8838 51.0519 50.6623 51.1368 50.4464 51.1368Z" fill="#3C82F7"/>
<path d="M16.8952 17.6892C16.6793 17.6892 16.4577 17.6042 16.293 17.44L8.76017 9.9317C8.425 9.59761 8.425 9.05969 8.76017 8.73127C9.09534 8.39719 9.63502 8.39719 9.96451 8.73127L17.4973 16.2396C17.8325 16.5737 17.8325 17.1116 17.4973 17.44C17.3326 17.6042 17.111 17.6892 16.8952 17.6892Z" fill="#3C82F7"/>
</svg>
