<svg width="29" height="28" viewBox="0 0 29 28" fill="none" xmlns="http://www.w3.org/2000/svg">
<path d="M12.3585 17.5252C12.3585 17.7063 12.2103 17.8505 12.0318 17.8505H10.6342C10.4523 17.8505 10.3075 17.7029 10.3075 17.5252V11.6924C10.3075 11.5113 10.4557 11.367 10.6342 11.367H12.0318C12.2137 11.367 12.3585 11.5146 12.3585 11.6924V17.5252ZM11.3313 10.817C10.5971 10.817 10.0044 10.2267 10.0044 9.49546C10.0044 8.76427 10.5971 8.17395 11.3313 8.17395C12.0655 8.17395 12.6583 8.76427 12.6583 9.49546C12.6583 10.2267 12.0655 10.817 11.3313 10.817ZM19.6601 17.552C19.6601 17.7164 19.5254 17.8539 19.357 17.8539H17.8583C17.6932 17.8539 17.5552 17.7197 17.5552 17.552V14.8151C17.5552 14.4059 17.6764 13.0273 16.4842 13.0273C15.5614 13.0273 15.3728 13.9732 15.3357 14.3958V17.552C15.3357 17.7164 15.201 17.8539 15.0326 17.8539H13.5811C13.416 17.8539 13.278 17.7197 13.278 17.552V11.6656C13.278 11.5012 13.4127 11.3637 13.5811 11.3637H15.0326C15.1976 11.3637 15.3357 11.4979 15.3357 11.6656V12.1754C15.6793 11.6622 16.1878 11.2664 17.2723 11.2664C19.6736 11.2664 19.6601 13.5003 19.6601 14.7279V17.552Z" fill="white"/>
<path d="M14.433 28C6.68014 28 0.375488 21.7178 0.375488 14C0.375488 6.28222 6.68014 0 14.433 0C15.3827 0 16.3325 0.0939147 17.2586 0.281744C17.7672 0.385721 18.2757 0.516531 18.7674 0.677528C19.0166 0.758026 19.1514 1.023 19.0705 1.2712C18.9897 1.51941 18.7236 1.65357 18.4744 1.57307C18.0164 1.42549 17.5415 1.30139 17.07 1.20412C16.2078 1.02971 15.3221 0.939147 14.433 0.939147C7.20216 0.939147 1.32186 6.79875 1.32186 14C1.32186 21.2012 7.20553 27.0575 14.433 27.0575C21.6604 27.0575 27.5475 21.1979 27.5475 14C27.5475 11.8567 27.0153 9.73023 26.0083 7.85194C25.8837 7.62386 25.9713 7.33876 26.2037 7.21466C26.4327 7.09056 26.719 7.17777 26.8436 7.4092C27.9247 9.42166 28.4938 11.7024 28.4938 14C28.4938 21.7211 22.1858 28 14.4363 28H14.433Z" fill="white"/>
<path d="M23.9572 4.82323C23.8393 4.82323 23.7181 4.77962 23.6271 4.68906C23.2903 4.36036 22.9333 4.04843 22.5662 3.75662C22.2833 3.5319 21.987 3.32059 21.6872 3.11934C21.4683 2.97512 21.4111 2.68331 21.5559 2.4653C21.7007 2.24728 21.9937 2.19026 22.2126 2.33449C22.5359 2.54915 22.8525 2.77723 23.1556 3.01537C23.5497 3.3273 23.9336 3.66271 24.2906 4.01489C24.4758 4.19601 24.4792 4.49452 24.2973 4.679C24.2064 4.77291 24.0818 4.81987 23.9605 4.81987L23.9572 4.82323Z" fill="white"/>
</svg>
