<svg width="135" height="41" viewBox="0 0 135 41" fill="none" xmlns="http://www.w3.org/2000/svg">
<path d="M47.4053 10.7034H49.6227V20.4983H47.4053V10.7034Z" fill="white"/>
<path d="M51.7563 13.32C52.1168 13.2176 52.5802 13.1185 53.1499 13.0289C53.7195 12.9393 54.3149 12.8945 54.9424 12.8945C55.57 12.8945 56.1074 12.9777 56.529 13.1408C56.9506 13.3072 57.2853 13.5375 57.5331 13.8414C57.7809 14.1421 57.9547 14.5004 58.0577 14.9162C58.1607 15.3321 58.2154 15.7927 58.2154 16.3013V20.4983H56.0978V16.554C56.0978 15.8759 56.0077 15.3961 55.8275 15.1114C55.6472 14.8299 55.3093 14.6859 54.8169 14.6859C54.6657 14.6859 54.5047 14.6923 54.3342 14.7083C54.1636 14.7211 54.0124 14.7403 53.8804 14.7563V20.4951H51.7628V13.3136L51.7563 13.32Z" fill="white"/>
<path d="M66.7276 20.2583C66.5378 20.3159 66.3189 20.3703 66.0743 20.4214C65.8265 20.4726 65.5691 20.5174 65.2987 20.5558C65.0284 20.5942 64.7548 20.623 64.4748 20.6486C64.1949 20.671 63.9277 20.6838 63.6703 20.6838C63.0524 20.6838 62.5053 20.5942 62.0193 20.415C61.5333 20.2359 61.1278 19.98 60.7964 19.6441C60.4649 19.3082 60.2106 18.9052 60.0368 18.4285C59.8598 17.9519 59.7729 17.4177 59.7729 16.8259C59.7729 16.2341 59.8502 15.6775 60.0014 15.1945C60.1527 14.7083 60.3715 14.2956 60.6548 13.9565C60.938 13.6174 61.2888 13.3583 61.7007 13.1792C62.1126 13.0001 62.5857 12.9105 63.1167 12.9105C63.4096 12.9105 63.6735 12.9393 63.9052 12.9969C64.1369 13.0544 64.3719 13.1344 64.61 13.2368V9.87155L66.7276 9.53247V20.2583ZM61.9356 16.7235C61.9356 17.3729 62.0837 17.8975 62.3765 18.291C62.6694 18.6877 63.1071 18.886 63.6864 18.886C63.8762 18.886 64.05 18.8796 64.2109 18.8636C64.3719 18.8508 64.5038 18.8316 64.61 18.8156V14.9866C64.4781 14.9002 64.3043 14.8298 64.0919 14.7754C63.8795 14.7178 63.6638 14.6923 63.445 14.6923C62.4409 14.6923 61.9388 15.3704 61.9388 16.7267L61.9356 16.7235Z" fill="white"/>
<path d="M75.1046 20.2454C74.7441 20.3478 74.2807 20.4469 73.7111 20.5365C73.1414 20.6261 72.5461 20.6709 71.9185 20.6709C71.2909 20.6709 70.7535 20.5845 70.3319 20.415C69.9103 20.2454 69.5756 20.0087 69.3278 19.7016C69.08 19.3945 68.9062 19.0298 68.8032 18.6076C68.7002 18.1821 68.6455 17.7183 68.6455 17.2097V13.0671H70.7631V16.9538C70.7631 17.6319 70.8532 18.1214 71.0335 18.4253C71.2137 18.726 71.5516 18.8763 72.044 18.8763C72.1953 18.8763 72.3562 18.8699 72.5267 18.8539C72.6973 18.8411 72.8486 18.8219 72.9805 18.8059V13.0671H75.0981V20.2486L75.1046 20.2454Z" fill="white"/>
<path d="M79.2433 18.9883C79.6327 18.9883 79.9063 18.9499 80.0672 18.8764C80.2281 18.7996 80.3086 18.6556 80.3086 18.4381C80.3086 18.2686 80.2056 18.1214 79.9964 17.9935C79.7872 17.8655 79.4718 17.7216 79.0438 17.5616C78.7123 17.4401 78.4098 17.3121 78.1395 17.181C77.8691 17.0498 77.6406 16.8899 77.4508 16.7075C77.2609 16.5252 77.1128 16.3045 77.0099 16.0518C76.9069 15.7958 76.8522 15.492 76.8522 15.1337C76.8522 14.4363 77.1128 13.8861 77.6342 13.4799C78.1556 13.0736 78.87 12.8721 79.7808 12.8721C80.2346 12.8721 80.6723 12.9137 81.0874 12.9936C81.5058 13.0736 81.8373 13.16 82.0819 13.2559L81.7118 14.897C81.4639 14.8106 81.1968 14.737 80.9072 14.6698C80.6175 14.6027 80.2925 14.5707 79.932 14.5707C79.2691 14.5707 78.9376 14.753 78.9376 15.1209C78.9376 15.2041 78.9505 15.2808 78.9794 15.348C79.0084 15.4152 79.0663 15.4792 79.15 15.5399C79.2337 15.6007 79.3528 15.6679 79.4976 15.7383C79.6456 15.8086 79.8323 15.8886 80.0608 15.9718C80.5242 16.1413 80.9104 16.3109 81.2129 16.4772C81.5154 16.6435 81.7568 16.8227 81.9306 17.0146C82.1044 17.2065 82.2299 17.4209 82.3007 17.6576C82.3715 17.8911 82.4069 18.1662 82.4069 18.4765C82.4069 19.209 82.1301 19.7656 81.5766 20.1399C81.023 20.5174 80.2378 20.7029 79.224 20.7029C78.5611 20.7029 78.0075 20.6453 77.5666 20.5334C77.1257 20.4214 76.82 20.3255 76.6494 20.2519L77.0034 18.5405C77.3639 18.6812 77.734 18.7932 78.1137 18.8732C78.4935 18.9531 78.8668 18.9947 79.2369 18.9947L79.2433 18.9883Z" fill="white"/>
<path d="M83.9194 11.2119L86.0371 10.8728V13.064H88.5827V14.817H86.0371V17.4305C86.0371 17.8719 86.1143 18.227 86.272 18.4893C86.4297 18.7548 86.7419 18.886 87.2182 18.886C87.4467 18.886 87.6816 18.8636 87.923 18.822C88.1643 18.7804 88.3864 18.7196 88.5827 18.6461L88.882 20.2871C88.6245 20.3895 88.3413 20.479 88.0292 20.5558C87.717 20.6326 87.334 20.6678 86.877 20.6678C86.2977 20.6678 85.8214 20.591 85.4417 20.4342C85.0619 20.2775 84.7594 20.0632 84.5309 19.7849C84.3024 19.5066 84.1447 19.1707 84.0546 18.774C83.9645 18.3774 83.9194 17.9391 83.9194 17.4593V11.2119Z" fill="white"/>
<path d="M94.8132 14.9289C94.6233 14.8809 94.4013 14.8329 94.1438 14.7817C93.8863 14.7306 93.6128 14.705 93.3199 14.705C93.188 14.705 93.0271 14.7178 92.8436 14.7402C92.6602 14.7626 92.5186 14.7881 92.4252 14.8169V20.4981H90.3076V13.4606C90.6874 13.3295 91.1347 13.2047 91.6529 13.0863C92.171 12.968 92.7439 12.9104 93.3811 12.9104C93.4937 12.9104 93.6321 12.9168 93.793 12.9328C93.9539 12.9456 94.1148 12.9648 94.2757 12.9904C94.4367 13.0128 94.5976 13.0416 94.7585 13.0767C94.9194 13.1087 95.0578 13.1503 95.1704 13.1983L94.8164 14.9353L94.8132 14.9289Z" fill="white"/>
<path d="M103.403 13.064C102.975 14.4971 102.527 15.8406 102.064 17.0914C101.597 18.3453 101.089 19.5609 100.538 20.7381C100.339 21.1635 100.139 21.5218 99.9399 21.8193C99.7404 22.1168 99.5215 22.3599 99.2834 22.555C99.0452 22.747 98.7781 22.8909 98.4788 22.9805C98.1795 23.0701 97.8319 23.1148 97.4329 23.1148C97.1014 23.1148 96.7956 23.0828 96.5157 23.0221C96.2357 22.9613 96.004 22.8909 95.8237 22.8173L96.1938 21.1347C96.4127 21.2115 96.6058 21.2627 96.7763 21.2915C96.9469 21.3203 97.1271 21.3331 97.317 21.3331C97.6968 21.3331 97.9864 21.2307 98.1924 21.0292C98.3951 20.8276 98.5689 20.5461 98.7105 20.1879C98.2278 19.2442 97.7418 18.1886 97.2591 17.0146C96.7763 15.8406 96.3193 14.5259 95.8945 13.064H98.1409C98.2374 13.4318 98.3469 13.8285 98.4756 14.2571C98.6043 14.6858 98.7395 15.1208 98.8811 15.5591C99.0227 15.9973 99.1675 16.4228 99.3156 16.8386C99.4636 17.2545 99.6052 17.6288 99.7371 17.9678C99.8594 17.6288 99.9882 17.2513 100.123 16.8386C100.255 16.4228 100.387 15.9973 100.516 15.5591C100.645 15.1208 100.767 14.689 100.886 14.2571C101.005 13.8285 101.111 13.4318 101.208 13.064H103.4H103.403Z" fill="white"/>
<path d="M116.714 15.5944C116.714 16.4421 116.582 17.181 116.315 17.8144C116.048 18.4446 115.671 18.9692 115.185 19.3818C114.696 19.7977 114.101 20.108 113.399 20.3159C112.698 20.5238 111.912 20.6262 111.04 20.6262C110.641 20.6262 110.178 20.6102 109.647 20.5782C109.116 20.5462 108.594 20.4758 108.083 20.3735V10.8312C108.594 10.7385 109.128 10.6745 109.682 10.6393C110.236 10.6073 110.712 10.5913 111.111 10.5913C111.954 10.5913 112.72 10.6841 113.409 10.8728C114.097 11.0615 114.686 11.359 115.179 11.7621C115.671 12.1684 116.051 12.6866 116.315 13.3168C116.579 13.9469 116.714 14.7083 116.714 15.5912V15.5944ZM110.3 18.7037C110.403 18.7133 110.525 18.7197 110.664 18.7261C110.802 18.7324 110.963 18.7324 111.153 18.7324C112.263 18.7324 113.084 18.4541 113.621 17.8975C114.155 17.3409 114.426 16.5732 114.426 15.5944C114.426 14.6155 114.168 13.7902 113.657 13.2624C113.145 12.7346 112.334 12.4722 111.224 12.4722C111.072 12.4722 110.915 12.4722 110.754 12.4786C110.593 12.485 110.442 12.4946 110.3 12.5138V18.7037Z" fill="white"/>
<path d="M118.062 16.8387C118.062 16.1798 118.165 15.6008 118.368 15.1081C118.57 14.6123 118.841 14.2029 119.172 13.8702C119.504 13.5407 119.887 13.2912 120.318 13.1216C120.749 12.9521 121.193 12.8657 121.647 12.8657C122.709 12.8657 123.549 13.1888 124.164 13.835C124.779 14.4812 125.087 15.4312 125.087 16.682C125.087 16.8035 125.081 16.9379 125.075 17.085C125.065 17.2322 125.055 17.3601 125.046 17.4753H120.238C120.286 17.9104 120.489 18.2526 120.849 18.5085C121.209 18.7645 121.692 18.8892 122.3 18.8892C122.69 18.8892 123.07 18.854 123.446 18.7836C123.819 18.7133 124.125 18.6269 124.363 18.5213L124.647 20.2327C124.534 20.2903 124.379 20.3447 124.193 20.4023C124.003 20.4599 123.794 20.5078 123.559 20.5494C123.327 20.591 123.076 20.6262 122.812 20.655C122.545 20.6838 122.281 20.6966 122.017 20.6966C121.345 20.6966 120.759 20.5974 120.26 20.3991C119.761 20.2007 119.349 19.9288 119.024 19.5866C118.696 19.2443 118.455 18.8348 118.3 18.3646C118.142 17.8944 118.065 17.3857 118.065 16.8387H118.062ZM123.041 16.0326C123.031 15.8535 122.999 15.6807 122.947 15.5112C122.896 15.3417 122.815 15.1913 122.706 15.0602C122.597 14.929 122.458 14.8202 122.294 14.7339C122.127 14.6507 121.921 14.6059 121.676 14.6059C121.432 14.6059 121.235 14.6475 121.065 14.7275C120.894 14.8074 120.752 14.913 120.637 15.0442C120.524 15.1753 120.434 15.3289 120.373 15.5048C120.312 15.6807 120.267 15.8567 120.238 16.0358H123.037L123.041 16.0326Z" fill="white"/>
<path d="M129.967 9.5293C130.366 9.5293 130.694 9.56129 130.955 9.62846C131.215 9.69564 131.434 9.76601 131.614 9.83959L131.244 11.4934C131.093 11.4262 130.926 11.3814 130.739 11.3527C130.556 11.3239 130.366 11.3111 130.176 11.3111C129.918 11.3111 129.703 11.3463 129.529 11.4166C129.352 11.487 129.217 11.583 129.117 11.7077C129.017 11.8293 128.946 11.9764 128.905 12.146C128.863 12.3155 128.84 12.4979 128.84 12.6962V13.0641H131.457V14.817H128.84V20.4982H126.723V12.6674C126.723 11.7077 126.996 10.9432 127.54 10.377C128.084 9.8108 128.892 9.5293 129.963 9.5293H129.967ZM135 10.9144C135 11.3015 134.875 11.6054 134.624 11.8261C134.372 12.0468 134.076 12.1588 133.735 12.1588C133.394 12.1588 133.098 12.0468 132.847 11.8261C132.596 11.6054 132.47 11.3015 132.47 10.9144C132.47 10.5273 132.596 10.2235 132.847 10.0027C133.098 9.78201 133.394 9.67005 133.735 9.67005C134.076 9.67005 134.372 9.78201 134.624 10.0027C134.875 10.2235 135 10.5273 135 10.9144ZM134.801 20.4982H132.683V13.0641H134.801V20.4982Z" fill="white"/>
<path d="M51.8978 33.9047C50.2951 33.9047 49.0754 33.4633 48.2354 32.5772C47.3954 31.6911 46.9771 30.434 46.9771 28.8025C46.9771 27.9932 47.1058 27.2703 47.36 26.6337C47.6175 25.9971 47.9651 25.4597 48.4124 25.0215C48.8565 24.5832 49.3875 24.2505 50.0054 24.0234C50.6201 23.7963 51.2895 23.6843 52.0104 23.6843C52.4288 23.6843 52.8053 23.7163 53.1465 23.7771C53.4876 23.8379 53.7869 23.9082 54.0412 23.9882C54.2986 24.0682 54.511 24.1514 54.6816 24.2345C54.8522 24.3209 54.9745 24.3849 55.0517 24.4329L54.4113 26.2146C54.1087 26.0547 53.7547 25.9171 53.3524 25.8052C52.9502 25.6932 52.4932 25.6356 51.9815 25.6356C51.6403 25.6356 51.3056 25.6932 50.9774 25.8052C50.6491 25.9171 50.3595 26.0995 50.1084 26.349C49.8574 26.5985 49.6547 26.9216 49.5034 27.3182C49.3521 27.7149 49.2749 28.1947 49.2749 28.7609C49.2749 29.212 49.3232 29.6342 49.4229 30.0245C49.5227 30.4148 49.6836 30.7538 49.9057 31.0353C50.1277 31.3168 50.4206 31.5408 50.781 31.7071C51.1415 31.8735 51.576 31.9534 52.0877 31.9534C52.4095 31.9534 52.6991 31.9342 52.9566 31.8958C53.2141 31.8575 53.4393 31.8127 53.6389 31.7615C53.8384 31.7103 54.0122 31.6495 54.1634 31.5855C54.3147 31.5184 54.4531 31.4576 54.5754 31.4032L55.1869 33.169C54.8747 33.3577 54.4338 33.5273 53.8641 33.6776C53.2945 33.828 52.6348 33.9047 51.8881 33.9047H51.8978Z" fill="white"/>
<path d="M63.3035 29.9766C63.3035 30.5619 63.2166 31.0962 63.046 31.5792C62.8754 32.0654 62.6276 32.4781 62.3058 32.8236C61.984 33.169 61.5978 33.4345 61.1472 33.6233C60.6967 33.812 60.1914 33.9048 59.6314 33.9048C59.0714 33.9048 58.5823 33.812 58.1317 33.6233C57.6811 33.4345 57.2949 33.169 56.9731 32.8236C56.6513 32.4813 56.4003 32.0654 56.22 31.5792C56.0398 31.093 55.9497 30.5587 55.9497 29.9766C55.9497 29.3944 56.043 28.8601 56.2265 28.3803C56.4099 27.9005 56.6674 27.491 56.9956 27.1519C57.3239 26.8129 57.7101 26.5506 58.1607 26.3618C58.6112 26.1731 59.1004 26.0803 59.6314 26.0803C60.1624 26.0803 60.6677 26.1731 61.1182 26.3618C61.5688 26.5506 61.955 26.8129 62.2768 27.1519C62.5986 27.491 62.8497 27.9005 63.0299 28.3803C63.2101 28.8601 63.3002 29.3944 63.3002 29.9766H63.3035ZM61.1408 29.9766C61.1408 29.3272 61.0088 28.8154 60.7481 28.4443C60.4875 28.0732 60.1141 27.8845 59.6314 27.8845C59.1487 27.8845 58.7721 28.07 58.5082 28.4443C58.2411 28.8154 58.1092 29.3272 58.1092 29.9766C58.1092 30.6259 58.2411 31.1441 58.5082 31.5248C58.7721 31.9055 59.1487 32.0974 59.6314 32.0974C60.1141 32.0974 60.4875 31.9055 60.7481 31.5248C61.0088 31.1441 61.1408 30.6259 61.1408 29.9766Z" fill="white"/>
<path d="M71.3233 33.4537C70.9629 33.556 70.4994 33.6552 69.9298 33.7448C69.3602 33.8343 68.7648 33.8791 68.1372 33.8791C67.5097 33.8791 66.9722 33.7928 66.5506 33.6232C66.129 33.4537 65.7943 33.217 65.5465 32.9099C65.2987 32.6028 65.1249 32.2381 65.0219 31.8158C64.919 31.3904 64.8643 30.9266 64.8643 30.4179V26.2754H66.9819V30.162C66.9819 30.8402 67.072 31.3296 67.2522 31.6335C67.4324 31.9342 67.7704 32.0846 68.2628 32.0846C68.414 32.0846 68.5749 32.0782 68.7455 32.0622C68.9161 32.0494 69.0673 32.0302 69.1993 32.0142V26.2754H71.3169V33.4569L71.3233 33.4537Z" fill="white"/>
<path d="M73.312 26.5282C73.6725 26.4259 74.1359 26.3267 74.7055 26.2371C75.2752 26.1476 75.8705 26.1028 76.4981 26.1028C77.1257 26.1028 77.6631 26.186 78.0847 26.3491C78.5063 26.5154 78.841 26.7458 79.0888 27.0497C79.3366 27.3503 79.5104 27.7086 79.6134 28.1245C79.7164 28.5403 79.7711 29.001 79.7711 29.5096V33.7065H77.6535V29.7623C77.6535 29.0841 77.5633 28.6043 77.3831 28.3196C77.2029 28.0381 76.865 27.8942 76.3726 27.8942C76.2213 27.8942 76.0604 27.9006 75.8898 27.9165C75.7193 27.9293 75.568 27.9485 75.4361 27.9645V33.7033H73.3184V26.5218L73.312 26.5282Z" fill="white"/>
<path d="M81.332 29.9894C81.332 29.452 81.4189 28.9466 81.5959 28.4699C81.7697 27.9933 82.024 27.5806 82.3554 27.2256C82.6869 26.8737 83.0892 26.5922 83.5655 26.3843C84.0386 26.1763 84.5793 26.074 85.1875 26.074C85.5866 26.074 85.9503 26.1092 86.2817 26.1795C86.6132 26.2499 86.935 26.3523 87.2472 26.4834L86.8063 28.166C86.6068 28.0893 86.3879 28.0253 86.153 27.9677C85.9149 27.9101 85.651 27.8813 85.3581 27.8813C84.7337 27.8813 84.2639 28.0733 83.9581 28.4603C83.6492 28.8474 83.4947 29.356 83.4947 29.9862C83.4947 30.6548 83.6395 31.173 83.9292 31.5409C84.2188 31.9087 84.7241 32.0911 85.445 32.0911C85.7024 32.0911 85.976 32.0687 86.2689 32.0207C86.5617 31.9727 86.8321 31.8991 87.0799 31.7936L87.3792 33.5178C87.1314 33.6201 86.8256 33.7097 86.4555 33.7865C86.0854 33.8632 85.6767 33.8984 85.2326 33.8984C84.5503 33.8984 83.9614 33.7961 83.469 33.5945C82.9766 33.393 82.5711 33.1179 82.2525 32.7692C81.9338 32.4205 81.7021 32.0079 81.5573 31.5313C81.4093 31.0546 81.3385 30.5396 81.3385 29.983L81.332 29.9894Z" fill="white"/>
<path d="M91.1155 24.1257C91.1155 24.5128 90.99 24.8167 90.739 25.0374C90.4879 25.2581 90.1919 25.3701 89.8507 25.3701C89.5096 25.3701 89.2135 25.2581 88.9625 25.0374C88.7114 24.8167 88.5859 24.5128 88.5859 24.1257C88.5859 23.7386 88.7114 23.4348 88.9625 23.214C89.2135 22.9933 89.5096 22.8813 89.8507 22.8813C90.1919 22.8813 90.4879 22.9933 90.739 23.214C90.99 23.4348 91.1155 23.7386 91.1155 24.1257ZM90.916 33.7095H88.7983V26.2754H90.916V33.7095Z" fill="white"/>
<path d="M95.8948 33.8504C95.2768 33.8408 94.778 33.7736 94.395 33.6521C94.0121 33.5305 93.7063 33.3578 93.4843 33.1371C93.2622 32.9163 93.111 32.6476 93.0305 32.331C92.95 32.0143 92.9082 31.6592 92.9082 31.2625V23.0798L95.0258 22.7407V30.8403C95.0258 31.029 95.0387 31.1986 95.0677 31.3489C95.0966 31.4992 95.1513 31.6272 95.2318 31.7296C95.3123 31.8319 95.4281 31.9183 95.5794 31.9855C95.7306 32.0527 95.9334 32.0942 96.1908 32.1134L95.8915 33.8504H95.8948Z" fill="white"/>
<path d="M49.3104 37.3531L49.0014 38.0153C48.6249 37.7945 48.1775 37.6506 47.8943 37.6506C47.624 37.6506 47.4438 37.7466 47.4438 37.9385C47.4438 38.5911 49.3393 38.2264 49.3329 39.4996C49.3329 40.1905 48.7278 40.5648 47.9426 40.5648C47.3569 40.5648 46.7744 40.3441 46.3721 40.005L46.6907 39.3524C47.0576 39.6755 47.5757 39.8834 47.949 39.8834C48.2805 39.8834 48.4768 39.7619 48.4768 39.5443C48.4768 38.879 46.5813 39.266 46.5813 38.0153C46.5813 37.3755 47.1348 36.9692 47.9587 36.9692C48.4575 36.9692 48.9531 37.1196 49.3104 37.3531Z" fill="#B2C4FD"/>
<path d="M53.578 40.5392V39.1444H51.9688V40.5392H51.1675V37.0044H51.9688V38.4791H53.578V37.0044H54.3793V40.5392H53.578Z" fill="#B2C4FD"/>
<path d="M57.1339 39.8546L56.854 40.5423H56.0269L57.5716 37.0076H58.3987L59.9177 40.5423H59.0585L58.7785 39.8546H57.1339ZM57.961 37.8393L57.3978 39.2116H58.521L57.961 37.8393Z" fill="#B2C4FD"/>
<path d="M63.0652 37.0044C63.9696 37.0044 64.4877 37.449 64.4877 38.2328C64.4877 39.0549 63.9696 39.5315 63.0652 39.5315H62.3604V40.5424H61.5591V37.0076H63.0685L63.0652 37.0044ZM62.3604 38.8629H63.0266C63.474 38.8629 63.7282 38.6614 63.7282 38.2584C63.7282 37.8553 63.474 37.6666 63.0266 37.6666H62.3604V38.8629Z" fill="#B2C4FD"/>
<path d="M66.2705 40.5392V37.0044H67.0719V40.5392H66.2705Z" fill="#B2C4FD"/>
<path d="M71.6196 40.5392L69.8978 38.2711V40.5392H69.1318V37.0044H69.8624L71.5906 39.2756V37.0044H72.3533V40.5392H71.6228H71.6196Z" fill="#B2C4FD"/>
<path d="M77.4863 38.7573V40.1168C77.1097 40.3887 76.5369 40.5775 76.0445 40.5775C74.9664 40.5775 74.1489 39.8001 74.1489 38.7733C74.1489 37.7465 74.9825 36.9819 76.0895 36.9819C76.6173 36.9819 77.1548 37.1835 77.5185 37.497L77.0679 38.0664C76.804 37.8232 76.4371 37.6729 76.0928 37.6729C75.462 37.6729 74.976 38.1527 74.976 38.7733C74.976 39.3939 75.4684 39.8801 76.0992 39.8801C76.3116 39.8801 76.5658 39.8033 76.7943 39.6882V38.7605H77.4895L77.4863 38.7573Z" fill="#B2C4FD"/>
<path d="M83.4627 37.0044C84.5666 37.0044 85.3325 37.7274 85.3325 38.7702C85.3325 39.813 84.5537 40.536 83.4337 40.536H81.9565V37.0012H83.4659L83.4627 37.0044ZM82.7579 39.8674H83.4852C84.0806 39.8674 84.5151 39.4228 84.5151 38.7766C84.5151 38.1304 84.0581 37.6762 83.4498 37.6762H82.7579V39.8674Z" fill="#B2C4FD"/>
<path d="M87.933 37.6665V38.4343H89.6515V39.0964H87.933V39.8802H89.8929V40.5423H87.1284V37.0076H89.835V37.6697H87.9298L87.933 37.6665Z" fill="#B2C4FD"/>
<path d="M92.5963 37.6666V38.5367H94.2022V39.202H92.5963V40.5392H91.7949V37.0044H94.3502L94.3438 37.6666H92.5963Z" fill="#B2C4FD"/>
<path d="M96.0845 40.5392V37.0044H96.8858V40.5392H96.0845Z" fill="#B2C4FD"/>
<path d="M98.8589 38.3479V37.0044H99.4478V38.3479H98.8589Z" fill="#B2C4FD"/>
<path d="M104.066 37.3531L103.757 38.0153C103.381 37.7945 102.933 37.6506 102.65 37.6506C102.38 37.6506 102.2 37.7466 102.2 37.9385C102.2 38.5911 104.095 38.2264 104.089 39.4996C104.089 40.1905 103.484 40.5648 102.698 40.5648C102.113 40.5648 101.53 40.3441 101.128 40.005L101.447 39.3524C101.813 39.6755 102.332 39.8834 102.705 39.8834C103.036 39.8834 103.233 39.7619 103.233 39.5443C103.233 38.879 101.337 39.266 101.337 38.0153C101.337 37.3755 101.891 36.9692 102.715 36.9692C103.213 36.9692 103.709 37.1196 104.066 37.3531Z" fill="#B2C4FD"/>
<path d="M109.215 37.6666V38.5367H110.821V39.202H109.215V40.5392H108.414V37.0044H110.969L110.963 37.6666H109.215Z" fill="#B2C4FD"/>
<path d="M115.848 39.0612C115.848 39.9953 115.233 40.5775 114.252 40.5775C113.27 40.5775 112.636 39.9953 112.636 39.0612V37.0076H113.438V39.0612C113.438 39.5699 113.772 39.8802 114.252 39.8802C114.731 39.8802 115.043 39.5731 115.043 39.0612V37.0076H115.845V39.0612H115.848Z" fill="#B2C4FD"/>
<path d="M119.369 37.6826V40.5392H118.568V37.6826H117.486V37.0044H120.457V37.6826H119.369Z" fill="#B2C4FD"/>
<path d="M125.303 39.0612C125.303 39.9953 124.688 40.5775 123.707 40.5775C122.725 40.5775 122.091 39.9953 122.091 39.0612V37.0076H122.893V39.0612C122.893 39.5699 123.227 39.8802 123.707 39.8802C124.186 39.8802 124.499 39.5731 124.499 39.0612V37.0076H125.3V39.0612H125.303Z" fill="#B2C4FD"/>
<path d="M128.908 39.5315H128.09V40.5423H127.289V37.0076H128.834C129.764 37.0076 130.292 37.4522 130.292 38.2359C130.292 38.7797 130.057 39.1764 129.626 39.3779L130.382 40.5455H129.471L128.908 39.5347V39.5315ZM128.831 38.8661C129.272 38.8661 129.526 38.6646 129.526 38.2615C129.526 37.8585 129.272 37.6697 128.831 37.6697H128.09V38.8661H128.831Z" fill="#B2C4FD"/>
<path d="M133.04 37.6665V38.4343H134.758V39.0964H133.04V39.8802H135V40.5423H132.235V37.0076H134.942V37.6697H133.037L133.04 37.6665Z" fill="#B2C4FD"/>
<path d="M3.76538 3.74269V0C1.68637 0 0 1.67621 0 3.74269V3.77467H3.76538V3.74269Z" fill="#0000FF"/>
<path d="M20.9861 7.63257H7.35352C7.35352 9.69904 9.03989 11.3753 11.1189 11.3753H20.793C25.8006 11.3753 30.0391 15.2715 30.1871 20.2457C30.3352 25.22 26.1547 29.6696 20.9893 29.6696H11.1189C9.03989 29.6696 7.35352 31.3458 7.35352 33.4123H7.35995H20.7447C27.8249 33.4123 33.7819 27.8719 33.9493 20.8343C34.1167 13.7968 28.2401 7.63577 20.9861 7.63577V7.63257Z" fill="#B2C4FD"/>
<path d="M3.76538 37.2574V26.2724V7.63257H0V11.5544V20.5208V41H0.083675H3.76538V37.2574Z" fill="#0000FF"/>
<path d="M20.3135 0H7.35352C7.35352 2.06647 9.03989 3.74269 11.1189 3.74269H20.3457C29.5789 3.74269 37.3092 11.0009 37.4862 20.1753C37.6632 29.3497 30.0359 37.2573 20.6289 37.2573H11.1189C9.03989 37.2573 7.35352 38.9335 7.35352 41H20.6257C32.1052 41 41.4221 31.6305 41.2483 20.1817C41.0746 8.93446 31.6289 0 20.3135 0Z" fill="#3C82F7"/>
</svg>
