<svg width="308" height="42" viewBox="0 0 308 42" fill="none" xmlns="http://www.w3.org/2000/svg">
<g clip-path="url(#clip0_90_57)">
<path d="M306.26 33.92H286.16C283.76 33.92 281.37 33 279.81 31.17C278.96 30.18 277.82 29.45 276.53 29.11V21.29L290.8 13.63C291.99 12.99 291.99 11.29 290.8 10.65L276.53 2.99V1.43C276.53 0.64 275.89 0 275.1 0C274.31 0 273.67 0.64 273.67 1.43V29C272.17 29.28 270.84 30.06 269.89 31.18C268.33 33.01 265.95 33.93 263.54 33.93H240.19L234.95 29.53C234.31 29 233.37 29.08 232.84 29.71C232.31 30.34 232.39 31.29 233.02 31.82L235.52 33.92H204.8C202.4 33.92 200.01 33 198.45 31.17C197.25 29.77 195.47 28.88 193.48 28.88C191.49 28.88 189.71 29.77 188.51 31.17C186.95 33 184.57 33.92 182.16 33.92H154.41L149.17 29.52C148.53 28.99 147.59 29.07 147.06 29.7C146.53 30.33 146.61 31.28 147.24 31.81L149.74 33.91H123.42C121.02 33.91 118.64 32.99 117.07 31.16C115.87 29.76 114.09 28.87 112.1 28.87C110.11 28.87 108.33 29.76 107.13 31.16C105.57 32.99 103.19 33.91 100.78 33.91H65.29L60.05 29.51C59.41 28.98 58.47 29.06 57.94 29.69C57.41 30.32 57.49 31.27 58.12 31.8L60.62 33.9H42.04C39.64 33.9 37.26 32.98 35.69 31.15C34.49 29.75 32.71 28.86 30.72 28.86C28.73 28.86 26.95 29.75 25.75 31.15C24.19 32.98 21.81 33.9 19.4 33.9H1.5C0.67 33.9 0 34.57 0 35.4C0 36.23 0.67 36.9 1.5 36.9H19.45C21.85 36.9 24.23 37.82 25.8 39.65C27 41.05 28.78 41.94 30.77 41.94C32.76 41.94 34.54 41.05 35.74 39.65C37.3 37.82 39.68 36.9 42.09 36.9H60.67L58.17 39C57.54 39.53 57.45 40.48 57.99 41.11C58.29 41.46 58.71 41.65 59.14 41.65C59.48 41.65 59.82 41.53 60.1 41.3L65.34 36.9H100.83C103.23 36.9 105.61 37.82 107.18 39.65C108.38 41.05 110.16 41.94 112.15 41.94C114.14 41.94 115.92 41.05 117.12 39.65C118.68 37.82 121.06 36.9 123.47 36.9H149.79L147.29 39C146.66 39.53 146.57 40.48 147.11 41.11C147.41 41.46 147.83 41.65 148.26 41.65C148.6 41.65 148.94 41.53 149.22 41.3L154.46 36.9H182.21C184.61 36.9 186.99 37.82 188.56 39.65C189.76 41.05 191.54 41.94 193.53 41.94C195.52 41.94 197.3 41.05 198.5 39.65C200.06 37.82 202.44 36.9 204.85 36.9H235.57L233.07 39C232.44 39.53 232.35 40.48 232.89 41.11C233.19 41.46 233.61 41.65 234.04 41.65C234.38 41.65 234.72 41.53 235 41.3L240.24 36.9H263.59C265.99 36.9 268.37 37.82 269.94 39.65C271.14 41.05 272.92 41.94 274.91 41.94C276.9 41.94 278.68 41.05 279.88 39.65C281.44 37.82 283.82 36.9 286.23 36.9H306.33C307.16 36.9 307.83 36.23 307.83 35.4C307.83 34.57 307.16 33.9 306.33 33.9L306.26 33.92ZM30.33 38.29C28.75 38.29 27.46 37.01 27.46 35.42C27.46 33.83 28.74 32.55 30.33 32.55C31.92 32.55 33.2 33.83 33.2 35.42C33.2 37.01 31.92 38.29 30.33 38.29ZM112.07 38.29C110.49 38.29 109.2 37.01 109.2 35.42C109.2 33.83 110.48 32.55 112.07 32.55C113.66 32.55 114.94 33.83 114.94 35.42C114.94 37.01 113.66 38.29 112.07 38.29ZM193.47 38.29C191.89 38.29 190.6 37.01 190.6 35.42C190.6 33.83 191.88 32.55 193.47 32.55C195.06 32.55 196.34 33.83 196.34 35.42C196.34 37.01 195.06 38.29 193.47 38.29ZM275.11 38.29C273.53 38.29 272.24 37.01 272.24 35.42C272.24 33.83 273.52 32.55 275.11 32.55C276.7 32.55 277.98 33.83 277.98 35.42C277.98 37.01 276.7 38.29 275.11 38.29Z" fill="url(#paint0_linear_90_57)"/>
</g>
<defs>
<linearGradient id="paint0_linear_90_57" x1="11.22" y1="19.84" x2="308.82" y2="22.24" gradientUnits="userSpaceOnUse">
<stop stop-color="#F5F5F7" stop-opacity="0"/>
<stop offset="1" stop-color="white"/>
</linearGradient>
<clipPath id="clip0_90_57">
<rect width="307.76" height="41.96" fill="white"/>
</clipPath>
</defs>
</svg>
