<svg width="172" height="144" viewBox="0 0 172 144" fill="none" xmlns="http://www.w3.org/2000/svg">
<g opacity="0.25" clip-path="url(#clip0_90_376)">
<path d="M101.824 62.697V0H172V49.4632C172 76.2584 168.134 95.6506 160.337 107.64C150.18 123.625 134.062 135.745 111.98 143.934L95.9922 122.97C109.294 118.384 119.122 111.505 125.412 102.399C131.703 93.2921 135.241 80.0582 135.962 62.6315H101.758L101.824 62.697Z" fill="#3C82F7"/>
<path d="M5.83162 62.697V0H76.0076V49.4632C76.0076 76.2584 72.1417 95.6506 64.3444 107.64C54.1882 123.625 38.0693 135.745 15.9878 143.934L0 122.97C13.3013 118.384 23.1299 111.505 29.4202 102.399C35.7105 93.2921 39.2488 80.0582 39.9695 62.6315H5.83162V62.697Z" fill="#3C82F7"/>
</g>
<defs>
<clipPath id="clip0_90_376">
<rect width="172" height="144" fill="white"/>
</clipPath>
</defs>
</svg>
