<svg width="9" height="8" viewBox="0 0 9 8" fill="none" xmlns="http://www.w3.org/2000/svg">
<g clip-path="url(#clip0_90_379)">
<path d="M5.32809 3.48317V0H9.00009V2.74795C9.00009 4.23658 8.79781 5.31392 8.38981 5.97998C7.85838 6.86806 7.01495 7.5414 5.85952 7.99636L5.02295 6.83167C5.71895 6.57689 6.23323 6.19472 6.56238 5.68881C6.89152 5.18289 7.07666 4.44768 7.11438 3.47953H5.32466L5.32809 3.48317Z" fill="#3C82F7"/>
<path d="M0.305143 3.48317V0H3.97714V2.74795C3.97714 4.23658 3.77486 5.31392 3.36686 5.97998C2.83543 6.86806 1.992 7.5414 0.836571 7.99636L0 6.83167C0.696 6.57689 1.21029 6.19472 1.53943 5.68881C1.86857 5.18289 2.05371 4.44768 2.09143 3.47953H0.305143V3.48317Z" fill="#3C82F7"/>
</g>
<defs>
<clipPath id="clip0_90_379">
<rect width="9" height="8" fill="white"/>
</clipPath>
</defs>
</svg>
