<svg width="9" height="8" viewBox="0 0 9 8" fill="none" xmlns="http://www.w3.org/2000/svg">
<g clip-path="url(#clip0_90_385)">
<path d="M3.67191 4.51683L3.67191 8L-9.2268e-05 8L-9.20278e-05 5.25205C-9.18976e-05 3.76342 0.202194 2.68608 0.610194 2.02002C1.14162 1.13194 1.98505 0.458599 3.14048 0.0036401L3.97705 1.16833C3.28105 1.42311 2.76677 1.80528 2.43762 2.31119C2.10848 2.81711 1.92334 3.55232 1.88562 4.52047L3.67534 4.52047L3.67191 4.51683Z" fill="#3C82F7"/>
<path d="M8.69486 4.51683L8.69486 8L5.02286 8L5.02286 5.25205C5.02286 3.76342 5.22514 2.68608 5.63314 2.02002C6.16457 1.13194 7.008 0.458599 8.16343 0.0036401L9 1.16833C8.304 1.42311 7.78971 1.80528 7.46057 2.31119C7.13143 2.81711 6.94629 3.55232 6.90857 4.52047L8.69486 4.52047L8.69486 4.51683Z" fill="#3C82F7"/>
</g>
<defs>
<clipPath id="clip0_90_385">
<rect width="9" height="8" fill="white" transform="translate(9 8) rotate(-180)"/>
</clipPath>
</defs>
</svg>
