<svg width="95" height="96" viewBox="0 0 95 96" fill="none" xmlns="http://www.w3.org/2000/svg">
<g clip-path="url(#clip0_90_152)">
<path d="M14.8766 87.25C14.113 87.25 13.4966 86.629 13.4966 85.8596V38.4297C13.4966 37.6603 14.113 37.0393 14.8766 37.0393C15.6402 37.0393 16.2566 37.6603 16.2566 38.4297V85.8596C16.2566 86.629 15.6402 87.25 14.8766 87.25Z" fill="#3C82F7"/>
<path d="M36.6256 87.25C35.862 87.25 35.2456 86.629 35.2456 85.8596V38.4297C35.2456 37.6603 35.862 37.0393 36.6256 37.0393C37.3892 37.0393 38.0056 37.6603 38.0056 38.4297V85.8596C38.0056 86.629 37.3892 87.25 36.6256 87.25Z" fill="#3C82F7"/>
<path d="M58.3746 87.25C57.611 87.25 56.9946 86.629 56.9946 85.8596V38.4297C56.9946 37.6603 57.611 37.0393 58.3746 37.0393C59.1382 37.0393 59.7546 37.6603 59.7546 38.4297V85.8596C59.7546 86.629 59.1382 87.25 58.3746 87.25Z" fill="#3C82F7"/>
<path d="M80.1329 87.25C79.3693 87.25 78.7529 86.629 78.7529 85.8596V38.4297C78.7529 37.6603 79.3693 37.0393 80.1329 37.0393C80.8965 37.0393 81.513 37.6603 81.513 38.4297V85.8596C81.513 86.629 80.8965 87.25 80.1329 87.25Z" fill="#3C82F7"/>
<path d="M93.62 96H1.38001C0.616405 96 0 95.3789 0 94.6096C0 93.8403 0.616405 93.2192 1.38001 93.2192H93.62C94.3836 93.2192 95 93.8403 95 94.6096C95 95.3789 94.3836 96 93.62 96Z" fill="#3C82F7"/>
<path d="M93.62 30.5324H1.38001C0.616405 30.5324 0 29.9114 0 29.1421C0 28.3727 0.616405 27.7517 1.38001 27.7517H93.62C94.3836 27.7517 95 28.3727 95 29.1421C95 29.9114 94.3836 30.5324 93.62 30.5324Z" fill="#3C82F7"/>
<path d="M14.8765 22.839C14.4073 22.839 13.9565 22.598 13.6897 22.1624C13.2941 21.5043 13.5057 20.6515 14.1589 20.253L47.5 0L80.841 20.2622C81.4943 20.6608 81.7058 21.5136 81.3102 22.1717C80.9146 22.8298 80.0682 23.043 79.415 22.6444L47.5 3.24418L15.5849 22.6444C15.3641 22.7834 15.1157 22.8483 14.8765 22.8483V22.839Z" fill="#3C82F7"/>
</g>
<defs>
<clipPath id="clip0_90_152">
<rect width="95" height="96" fill="white"/>
</clipPath>
</defs>
</svg>
