<svg width="125" height="84" viewBox="0 0 125 84" fill="none" xmlns="http://www.w3.org/2000/svg">
<g clip-path="url(#clip0_90_125)">
<g opacity="0.2">
<path d="M62.637 83.7601C71.3049 83.7601 78.3316 76.7334 78.3316 68.0655C78.3316 59.3976 71.3049 52.3708 62.637 52.3708C53.9691 52.3708 46.9424 59.3976 46.9424 68.0655C46.9424 76.7334 53.9691 83.7601 62.637 83.7601Z" fill="#3C82F7"/>
</g>
<path d="M123.57 72.255C122.88 72.255 122.323 71.6981 122.323 71.0081C122.323 37.973 95.4478 11.0976 62.4127 11.0976C29.3775 11.0976 2.49385 37.973 2.49385 71.0081C2.49385 71.6981 1.93689 72.255 1.24692 72.255C0.556959 72.255 0 71.6981 0 71.0081C0 36.6013 27.9976 8.60376 62.4127 8.60376C96.8278 8.60376 124.817 36.6013 124.817 71.0081C124.817 71.6981 124.26 72.255 123.57 72.255Z" fill="#3C82F7"/>
<g opacity="0.2">
<path d="M101.89 72.2551C101.2 72.2551 100.644 71.6981 100.644 71.0081C100.644 50.1429 83.6687 33.1682 62.8036 33.1682C41.9384 33.1682 24.9553 50.1429 24.9553 71.0081C24.9553 71.6981 24.3983 72.2551 23.7083 72.2551C23.0184 72.2551 22.4614 71.6981 22.4614 71.0081C22.4614 48.763 40.5584 30.6743 62.7952 30.6743C85.032 30.6743 103.129 48.7713 103.129 71.0081C103.129 71.6981 102.572 72.2551 101.882 72.2551H101.89Z" fill="#3C82F7"/>
</g>
<path d="M62.6373 75.5387C66.7646 75.5387 70.1105 72.1929 70.1105 68.0655C70.1105 63.9382 66.7646 60.5923 62.6373 60.5923C58.5099 60.5923 55.1641 63.9382 55.1641 68.0655C55.1641 72.1929 58.5099 75.5387 62.6373 75.5387Z" fill="#3C82F7"/>
<path d="M62.953 69.3123C62.5373 69.3123 62.1383 69.1128 61.8972 68.7387L19.2525 1.92024C18.8784 1.33835 19.053 0.565255 19.6349 0.199491C20.2168 -0.174586 20.9898 -1.71957e-05 21.3556 0.58188L64.0087 67.4004C64.3828 67.9822 64.2082 68.7553 63.6263 69.1211C63.4185 69.2541 63.1857 69.3206 62.953 69.3206V69.3123Z" fill="#3C82F7"/>
</g>
<defs>
<clipPath id="clip0_90_125">
<rect width="124.817" height="83.76" fill="white"/>
</clipPath>
</defs>
</svg>
