<svg width="133" height="99" viewBox="0 0 133 99" fill="none" xmlns="http://www.w3.org/2000/svg">
<g clip-path="url(#clip0_90_134)">
<path d="M30.1019 67.9881H1.65153C0.737684 67.9881 0 67.2504 0 66.3366C0 65.4227 0.737684 64.6851 1.65153 64.6851H30.1019C31.0158 64.6851 31.7535 65.4227 31.7535 66.3366C31.7535 67.2504 31.0158 67.9881 30.1019 67.9881Z" fill="#3C82F7"/>
<path d="M130.592 67.9881H107.052C106.139 67.9881 105.401 67.2504 105.401 66.3366C105.401 65.4227 106.139 64.6851 107.052 64.6851H130.592C131.506 64.6851 132.244 65.4227 132.244 66.3366C132.244 67.2504 131.506 67.9881 130.592 67.9881Z" fill="#3C82F7"/>
<g opacity="0.2">
<path d="M130.592 34.7371H107.052C106.139 34.7371 105.401 33.9995 105.401 33.0856C105.401 32.1718 106.139 31.4341 107.052 31.4341H130.592C131.506 31.4341 132.244 32.1718 132.244 33.0856C132.244 33.9995 131.506 34.7371 130.592 34.7371Z" fill="#3C82F7"/>
</g>
<g opacity="0.2">
<path d="M27.8118 34.7371H1.65153C0.737684 34.7371 0 33.9995 0 33.0856C0 32.1718 0.737684 31.4341 1.65153 31.4341H27.8118C28.7256 31.4341 29.4633 32.1718 29.4633 33.0856C29.4633 33.9995 28.7256 34.7371 27.8118 34.7371Z" fill="#3C82F7"/>
</g>
<path d="M130.592 98.0899H59.2238C58.3099 98.0899 57.5723 97.3522 57.5723 96.4384C57.5723 95.5245 58.3099 94.7869 59.2238 94.7869H130.592C131.506 94.7869 132.244 95.5245 132.244 96.4384C132.244 97.3522 131.506 98.0899 130.592 98.0899Z" fill="#3C82F7"/>
<path d="M40.2313 98.0899H1.65153C0.737684 98.0899 0 97.3522 0 96.4384C0 95.5245 0.737684 94.7869 1.65153 94.7869H40.2313C41.1452 94.7869 41.8829 95.5245 41.8829 96.4384C41.8829 97.3522 41.1452 98.0899 40.2313 98.0899Z" fill="#3C82F7"/>
<g opacity="0.2">
<path d="M66.8429 77.2369C84.0941 77.2369 98.0789 63.252 98.0789 46.0009C98.0789 28.7497 84.0941 14.7649 66.8429 14.7649C49.5918 14.7649 35.6069 28.7497 35.6069 46.0009C35.6069 63.252 49.5918 77.2369 66.8429 77.2369Z" fill="#3C82F7"/>
</g>
<path d="M66.8428 60.8645C75.0518 60.8645 81.7066 54.2098 81.7066 46.0007C81.7066 37.7917 75.0518 31.137 66.8428 31.137C58.6337 31.137 51.979 37.7917 51.979 46.0007C51.979 54.2098 58.6337 60.8645 66.8428 60.8645Z" fill="#3C82F7"/>
<path d="M78.0621 45.9898H55.293V24.5088C55.293 18.233 60.4017 13.1243 66.6775 13.1243C72.9534 13.1243 78.0621 18.233 78.0621 24.5088V46.0008V45.9898ZM58.596 42.6867H74.759V24.5088C74.759 20.0497 71.1367 16.4273 66.6775 16.4273C62.2184 16.4273 58.596 20.0497 58.596 24.5088V42.6977V42.6867Z" fill="#3C82F7"/>
<path d="M66.8429 51.8033C70.0475 51.8033 72.6453 49.2054 72.6453 46.0009C72.6453 42.7963 70.0475 40.1985 66.8429 40.1985C63.6383 40.1985 61.0405 42.7963 61.0405 46.0009C61.0405 49.2054 63.6383 51.8033 66.8429 51.8033Z" fill="white"/>
<path d="M2.05876 0H73.427C74.3408 0 75.0785 0.737684 75.0785 1.65153C75.0785 2.56538 74.3408 3.30306 73.427 3.30306H2.05876C1.14491 3.30306 0.407227 2.56538 0.407227 1.65153C0.407227 0.737684 1.14491 0 2.05876 0Z" fill="#3C82F7"/>
<path d="M92.4196 0H130.999C131.913 0 132.651 0.737684 132.651 1.65153C132.651 2.56538 131.913 3.30306 130.999 3.30306H92.4196C91.5058 3.30306 90.7681 2.56538 90.7681 1.65153C90.7681 0.737684 91.5058 0 92.4196 0Z" fill="#3C82F7"/>
</g>
<defs>
<clipPath id="clip0_90_134">
<rect width="132.651" height="98.09" fill="white"/>
</clipPath>
</defs>
</svg>
