<svg width="20" height="19" viewBox="0 0 20 19" fill="none" xmlns="http://www.w3.org/2000/svg">
<path d="M9.8492 19C4.41728 19 0 14.7371 0 9.5C0 4.26294 4.41964 0 9.8492 0C10.5146 0 11.18 0.0637278 11.8289 0.191184C12.1853 0.261739 12.5416 0.350503 12.8861 0.459751C13.0607 0.514375 13.1551 0.694178 13.0984 0.862602C13.0418 1.03103 12.8554 1.12207 12.6808 1.06744C12.3599 0.967297 12.0272 0.883086 11.6968 0.817082C11.0927 0.69873 10.4721 0.637278 9.8492 0.637278C4.78302 0.637278 0.663062 4.61344 0.663062 9.5C0.663062 14.3866 4.78538 18.3604 9.8492 18.3604C14.913 18.3604 19.0377 14.3843 19.0377 9.5C19.0377 8.04564 18.6649 6.60266 17.9593 5.3281C17.872 5.17333 17.9334 4.97988 18.0962 4.89566C18.2566 4.81145 18.4572 4.87063 18.5445 5.02767C19.302 6.39327 19.7008 7.94094 19.7008 9.5C19.7008 14.7393 15.2811 19 9.85156 19H9.8492Z" fill="#3C82F7"/>
<path d="M16.5225 3.27287C16.4399 3.27287 16.355 3.24328 16.2913 3.18183C16.0553 2.95879 15.8052 2.74712 15.548 2.54911C15.3498 2.39661 15.1421 2.25323 14.9321 2.11667C14.7787 2.0188 14.7386 1.82079 14.8401 1.67285C14.9416 1.52491 15.1468 1.48622 15.3002 1.58408C15.5268 1.72975 15.7486 1.88452 15.9609 2.04611C16.237 2.25778 16.506 2.48538 16.7561 2.72436C16.8859 2.84726 16.8883 3.04982 16.7609 3.175C16.6971 3.23873 16.6098 3.2706 16.5249 3.2706L16.5225 3.27287Z" fill="#3C82F7"/>
<path d="M7.61451 12.4565C9.30737 12.4565 10.6797 11.1328 10.6797 9.49997C10.6797 7.86713 9.30737 6.54346 7.61451 6.54346C5.92165 6.54346 4.54932 7.86713 4.54932 9.49997C4.54932 11.1328 5.92165 12.4565 7.61451 12.4565Z" fill="#3C82F7"/>
<path d="M12.0624 12.4565C12.8261 12.4565 13.4452 11.1328 13.4452 9.49997C13.4452 7.86713 12.8261 6.54346 12.0624 6.54346C11.2988 6.54346 10.6797 7.86713 10.6797 9.49997C10.6797 11.1328 11.2988 12.4565 12.0624 12.4565Z" fill="#3C82F7"/>
<path d="M14.2971 11.8124C14.7676 11.8124 15.149 10.7771 15.149 9.50003C15.149 8.22292 14.7676 7.18762 14.2971 7.18762C13.8267 7.18762 13.4453 8.22292 13.4453 9.50003C13.4453 10.7771 13.8267 11.8124 14.2971 11.8124Z" fill="#3C82F7"/>
</svg>
