<svg width="20" height="19" viewBox="0 0 20 19" fill="none" xmlns="http://www.w3.org/2000/svg">
<path d="M18.5422 5.02767C18.4549 4.87063 18.2543 4.81373 18.0938 4.89566C17.9334 4.97988 17.872 5.17333 17.957 5.3281C18.6625 6.60266 19.0353 8.04336 19.0353 9.49772C19.0353 14.3843 14.913 18.3582 9.8492 18.3582C4.78538 18.3582 0.663063 14.3866 0.663063 9.5C0.663063 4.61344 4.78302 0.639554 9.8492 0.639554C10.4721 0.639554 11.0927 0.69873 11.6968 0.819358C12.0272 0.883086 12.3599 0.967297 12.6808 1.06972C12.8554 1.12434 13.0418 1.03103 13.0984 0.864878C13.1551 0.696454 13.0583 0.516651 12.8861 0.462027C12.5392 0.355055 12.1853 0.264015 11.8289 0.19346C11.1824 0.0637278 10.517 0 9.8492 0C4.41963 0 0 4.26294 0 9.5C0 14.7371 4.41963 19 9.8492 19C15.2788 19 19.6984 14.7371 19.6984 9.5C19.6984 7.94094 19.2973 6.39554 18.5422 5.02767Z" fill="#3C82F7"/>
<path d="M15.5478 2.54683C15.805 2.74257 16.0551 2.95651 16.2911 3.17956C16.3548 3.24101 16.4397 3.2706 16.5223 3.2706C16.6049 3.2706 16.6946 3.23873 16.7583 3.175C16.8857 3.04982 16.8857 2.84726 16.7536 2.72436C16.5011 2.48538 16.2344 2.25778 15.9584 2.04611C15.746 1.88452 15.5242 1.72747 15.2977 1.58408C15.1466 1.48622 14.939 1.52491 14.8375 1.67285C14.7361 1.81851 14.7785 2.0188 14.9296 2.11667C15.1396 2.25095 15.3472 2.39661 15.5454 2.54911L15.5478 2.54683Z" fill="#3C82F7"/>
<path d="M15.1255 5.68546C15.0194 5.56255 14.8471 5.51703 14.6914 5.57166L4.84925 9.00158C4.6534 9.06986 4.51418 9.23829 4.48822 9.43857C4.46227 9.63886 4.55429 9.83004 4.72419 9.94157L6.06211 10.8224C6.23909 10.9385 6.47033 10.9521 6.65911 10.8542L6.67326 10.8474C6.85968 10.7564 8.82527 9.85963 8.82527 9.85963L7.36936 10.9749L7.35284 10.9862L7.31745 11.0113C7.17115 11.116 7.08384 11.2821 7.08384 11.4597V14.1339C7.08384 14.2978 7.17587 14.448 7.32689 14.5254C7.47791 14.6028 7.65724 14.596 7.80118 14.5049L8.79459 12.716C8.84179 12.6864 8.90078 12.6864 8.94561 12.716L10.68 14.2614C10.772 14.3229 10.8829 14.3547 10.9914 14.3547C11.0292 14.3547 11.0669 14.3502 11.1023 14.3433C11.251 14.3138 11.3808 14.225 11.461 14.1021L15.1562 6.11562C15.2435 5.97906 15.2294 5.80381 15.1255 5.68091V5.68546Z" fill="#3C82F7"/>
</svg>
