<svg width="20" height="19" viewBox="0 0 20 19" fill="none" xmlns="http://www.w3.org/2000/svg">
<path fill-rule="evenodd" clip-rule="evenodd" d="M14.9744 6.47974C14.5968 6.64134 14.1957 6.74604 13.771 6.79611C14.2051 6.54575 14.5378 6.15883 14.6959 5.68998C14.2877 5.91757 13.837 6.086 13.3604 6.17476C12.9758 5.78557 12.4283 5.54431 11.8242 5.54431C10.6633 5.54431 9.72178 6.4365 9.72178 7.53808C9.72178 7.69513 9.7383 7.84762 9.7737 7.99328C8.02519 7.90907 6.4749 7.11475 5.43665 5.90619C5.25732 6.20207 5.15113 6.54347 5.15113 6.91218C5.15113 7.60409 5.52396 8.21405 6.08792 8.57366C5.74105 8.56456 5.41778 8.47124 5.13226 8.3233V8.34834C5.13226 8.60552 5.18417 8.84678 5.2762 9.06983C5.53576 9.70028 6.11387 10.1737 6.82177 10.308C6.64244 10.3512 6.45838 10.3762 6.26489 10.3762C6.12803 10.3762 5.99825 10.3626 5.87083 10.3421C6.13747 11.1364 6.9138 11.71 7.83406 11.7282C7.11673 12.2653 6.20826 12.5862 5.22428 12.5862C5.05439 12.5862 4.88686 12.5726 4.72168 12.5566C5.65374 13.1234 6.76278 13.4534 7.94969 13.4534C11.2343 13.4534 13.2589 11.2571 13.7875 8.97879C13.8842 8.57366 13.9314 8.16853 13.9314 7.77023C13.9314 7.68602 13.9314 7.59726 13.9267 7.51305C14.3373 7.23082 14.6936 6.88032 14.9744 6.47747V6.47974Z" fill="#3C82F7"/>
<path d="M9.8492 19C4.41727 19 0 14.7371 0 9.5C0 4.26294 4.41727 0 9.8492 0C10.5146 0 11.1824 0.0637278 11.8289 0.191184C12.1829 0.261739 12.5392 0.350503 12.8861 0.459751C13.0607 0.514375 13.1551 0.694178 13.0984 0.862602C13.0418 1.03103 12.8578 1.12207 12.6808 1.06744C12.3575 0.967297 12.0272 0.883086 11.6968 0.817082C11.0927 0.69873 10.4721 0.637278 9.8492 0.637278C4.78302 0.637278 0.660702 4.61344 0.660702 9.49772C0.660702 14.382 4.78302 18.3582 9.8492 18.3582C14.9154 18.3582 19.0377 14.382 19.0377 9.49772C19.0377 8.04336 18.6649 6.60038 17.9593 5.3281C17.872 5.17333 17.9334 4.97988 18.0962 4.89566C18.2566 4.81373 18.4572 4.87063 18.5445 5.02767C19.302 6.39327 19.7008 7.94094 19.7008 9.5C19.7008 14.7393 15.2811 19 9.85155 19H9.8492Z" fill="#3C82F7"/>
<path d="M16.52 3.27287C16.435 3.27287 16.3524 3.24328 16.2887 3.18183C16.0528 2.95879 15.8026 2.74712 15.5454 2.54911C15.3472 2.39889 15.1396 2.25323 14.9296 2.11667C14.7785 2.0188 14.7361 1.82079 14.8375 1.67285C14.939 1.52491 15.1443 1.48622 15.2977 1.58408C15.5242 1.72975 15.746 1.88452 15.9584 2.04611C16.2344 2.25778 16.5034 2.48538 16.7536 2.72436C16.8833 2.84726 16.8857 3.04982 16.7583 3.175C16.6946 3.23873 16.6073 3.2706 16.5223 3.2706L16.52 3.27287Z" fill="#3C82F7"/>
</svg>
