<svg width="20" height="19" viewBox="0 0 20 19" fill="none" xmlns="http://www.w3.org/2000/svg">
<path d="M8.39549 11.8921C8.39549 12.015 8.29166 12.1129 8.1666 12.1129H7.18735C7.05993 12.1129 6.95846 12.0127 6.95846 11.8921V7.93415C6.95846 7.81125 7.06229 7.71338 7.18735 7.71338H8.1666C8.29402 7.71338 8.39549 7.81352 8.39549 7.93415V11.8921ZM7.6758 7.34011C7.16139 7.34011 6.74609 6.93954 6.74609 6.44337C6.74609 5.94721 7.16139 5.54663 7.6758 5.54663C8.1902 5.54663 8.6055 5.94721 8.6055 6.44337C8.6055 6.93954 8.1902 7.34011 7.6758 7.34011ZM13.5112 11.9103C13.5112 12.0218 13.4168 12.1151 13.2989 12.1151H12.2488C12.1332 12.1151 12.0364 12.0241 12.0364 11.9103V10.0531C12.0364 9.77543 12.1214 8.83999 11.2861 8.83999C10.6395 8.83999 10.5074 9.48182 10.4814 9.7686V11.9103C10.4814 12.0218 10.387 12.1151 10.2691 12.1151H9.25205C9.13642 12.1151 9.03968 12.0241 9.03968 11.9103V7.91594C9.03968 7.80442 9.13406 7.7111 9.25205 7.7111H10.2691C10.3847 7.7111 10.4814 7.80214 10.4814 7.91594V8.26189C10.7221 7.91366 11.0784 7.6451 11.8382 7.6451C13.5207 7.6451 13.5112 9.16091 13.5112 9.99392V11.9103Z" fill="#3C82F7"/>
<path d="M9.84919 19C4.41727 19 0 14.7371 0 9.5C0 4.26294 4.41727 0 9.84919 0C10.5146 0 11.18 0.0637278 11.8289 0.191184C12.1853 0.261739 12.5416 0.350503 12.8861 0.459751C13.0607 0.514375 13.1551 0.694178 13.0984 0.862602C13.0418 1.03103 12.8554 1.12207 12.6808 1.06744C12.3599 0.967297 12.0272 0.883086 11.6968 0.817082C11.0927 0.69873 10.4721 0.637278 9.84919 0.637278C4.78302 0.637278 0.663062 4.61344 0.663062 9.5C0.663062 14.3866 4.78538 18.3604 9.84919 18.3604C14.913 18.3604 19.0377 14.3843 19.0377 9.5C19.0377 8.04564 18.6649 6.60266 17.9593 5.3281C17.872 5.17333 17.9334 4.97988 18.0962 4.89566C18.2566 4.81145 18.4572 4.87063 18.5445 5.02767C19.302 6.39327 19.7008 7.94094 19.7008 9.5C19.7008 14.7393 15.2811 19 9.85156 19H9.84919Z" fill="#3C82F7"/>
<path d="M16.5225 3.27287C16.4399 3.27287 16.355 3.24328 16.2913 3.18183C16.0553 2.95879 15.8052 2.74712 15.548 2.54911C15.3498 2.39661 15.1421 2.25323 14.9321 2.11667C14.7787 2.0188 14.7386 1.82079 14.8401 1.67285C14.9416 1.52491 15.1468 1.48622 15.3002 1.58408C15.5268 1.72975 15.7486 1.88452 15.9609 2.04611C16.237 2.25778 16.506 2.48538 16.7561 2.72436C16.8859 2.84726 16.8883 3.04982 16.7609 3.175C16.6971 3.23873 16.6098 3.2706 16.5249 3.2706L16.5225 3.27287Z" fill="#3C82F7"/>
</svg>
