<svg width="29" height="28" viewBox="0 0 29 28" fill="none" xmlns="http://www.w3.org/2000/svg">
<path d="M26.4647 7.4092C26.3401 7.17777 26.0538 7.09391 25.8248 7.21466C25.5958 7.33876 25.5082 7.62386 25.6295 7.85194C26.6365 9.73023 27.1686 11.8534 27.1686 13.9966C27.1686 21.1979 21.2849 27.0541 14.0575 27.0541C6.83004 27.0541 0.946371 21.2012 0.946371 14C0.946371 6.79875 6.82667 0.942501 14.0575 0.942501C14.9466 0.942501 15.8324 1.02971 16.6945 1.20747C17.166 1.30139 17.6409 1.42549 18.0989 1.57643C18.3482 1.65692 18.6142 1.51941 18.695 1.27456C18.7759 1.02635 18.6378 0.76138 18.3919 0.680882C17.8969 0.523239 17.3917 0.389075 16.8831 0.285098C15.9603 0.0939147 15.0106 0 14.0575 0C6.30802 0 0 6.28222 0 14C0 21.7178 6.30802 28 14.0575 28C21.807 28 28.115 21.7178 28.115 14C28.115 11.7024 27.5424 9.42501 26.4647 7.4092Z" fill="white"/>
<path d="M22.1908 3.75327C22.5579 4.04172 22.9149 4.35701 23.2517 4.68571C23.3426 4.77627 23.4639 4.81987 23.5817 4.81987C23.6996 4.81987 23.8276 4.77291 23.9185 4.679C24.1004 4.49452 24.1004 4.19601 23.9118 4.01489C23.5514 3.66271 23.1709 3.3273 22.7768 3.01537C22.4737 2.77723 22.1571 2.54579 21.8338 2.33449C21.6183 2.19026 21.3219 2.24728 21.1771 2.4653C21.0323 2.67996 21.0929 2.97512 21.3084 3.11934C21.6082 3.31724 21.9045 3.5319 22.1874 3.75662L22.1908 3.75327Z" fill="white"/>
<path d="M21.588 8.37847C21.4364 8.19735 21.1906 8.13027 20.9683 8.21077L6.92089 13.2654C6.64136 13.366 6.44265 13.6142 6.40561 13.9094C6.36856 14.2045 6.49991 14.4863 6.74239 14.6506L8.65197 15.9487C8.90456 16.1197 9.23462 16.1399 9.50405 15.9956L9.52425 15.9856C9.79031 15.8514 12.5958 14.5299 12.5958 14.5299L10.5178 16.1734L10.4942 16.1902L10.4437 16.2271C10.2349 16.3813 10.1103 16.6262 10.1103 16.8878V20.8289C10.1103 21.0704 10.2416 21.2917 10.4572 21.4058C10.6727 21.5198 10.9287 21.5098 11.1341 21.3756L12.552 18.7393C12.6193 18.6957 12.7035 18.6957 12.7675 18.7393L15.2429 21.0167C15.3742 21.1073 15.5325 21.1542 15.6875 21.1542C15.7413 21.1542 15.7952 21.1475 15.8457 21.1375C16.0579 21.0939 16.2432 20.963 16.3577 20.7819L21.6317 9.0124C21.7564 8.81115 21.7361 8.55289 21.588 8.37177V8.37847Z" fill="white"/>
</svg>
