<svg width="29" height="28" viewBox="0 0 29 28" fill="none" xmlns="http://www.w3.org/2000/svg">
<path fill-rule="evenodd" clip-rule="evenodd" d="M21.5484 9.54907C21.0096 9.78721 20.437 9.9415 19.8308 10.0153C20.4505 9.64633 20.9254 9.07614 21.151 8.38519C20.5684 8.7206 19.9251 8.96881 19.2448 9.09962C18.6958 8.52607 17.9145 8.17053 17.0523 8.17053C15.3953 8.17053 14.0516 9.48534 14.0516 11.1087C14.0516 11.3402 14.0751 11.5649 14.1256 11.7795C11.6301 11.6554 9.41737 10.4849 7.9355 8.70383C7.67955 9.13987 7.52799 9.64298 7.52799 10.1863C7.52799 11.206 8.06011 12.1049 8.86503 12.6348C8.36996 12.6214 7.90856 12.4839 7.50105 12.2659V12.3028C7.50105 12.6818 7.57514 13.0373 7.70649 13.366C8.07695 14.2951 8.90208 14.9928 9.91244 15.1907C9.65648 15.2544 9.39379 15.2913 9.11762 15.2913C8.92229 15.2913 8.73706 15.2712 8.55519 15.241C8.93576 16.4115 10.0438 17.2568 11.3573 17.2836C10.3334 18.0752 9.03679 18.5481 7.63239 18.5481C7.38991 18.5481 7.15079 18.528 6.91504 18.5045C8.24535 19.3397 9.82824 19.826 11.5223 19.826C16.2104 19.826 19.1 16.5893 19.8544 13.2319C19.9925 12.6348 20.0598 12.0378 20.0598 11.4508C20.0598 11.3267 20.0598 11.1959 20.0531 11.0718C20.6391 10.6559 21.1477 10.1394 21.5484 9.54571V9.54907Z" fill="white"/>
<path d="M14.2333 28C6.48043 28 0.175781 21.7178 0.175781 14C0.175781 6.28222 6.48043 0 14.2333 0C15.183 0 16.1361 0.0939147 17.0589 0.281744C17.5641 0.385721 18.0726 0.516531 18.5677 0.677528C18.8169 0.758026 18.9517 1.023 18.8708 1.2712C18.79 1.51941 18.5273 1.65357 18.2747 1.57307C17.8133 1.42549 17.3418 1.30139 16.8703 1.20412C16.0081 1.02971 15.1224 0.939147 14.2333 0.939147C7.00245 0.939147 1.11878 6.79875 1.11878 13.9966C1.11878 21.1945 7.00245 27.0541 14.2333 27.0541C21.4641 27.0541 27.3478 21.1945 27.3478 13.9966C27.3478 11.8534 26.8156 9.72688 25.8086 7.85194C25.684 7.62386 25.7716 7.33876 26.004 7.21466C26.233 7.09391 26.5193 7.17777 26.6439 7.4092C27.725 9.42166 28.2941 11.7024 28.2941 14C28.2941 21.7211 21.9861 28 14.2366 28H14.2333Z" fill="white"/>
<path d="M23.7542 4.82323C23.6329 4.82323 23.515 4.77962 23.4241 4.68906C23.0873 4.36036 22.7303 4.04843 22.3632 3.75662C22.0803 3.53525 21.7839 3.32059 21.4842 3.11934C21.2687 2.97512 21.208 2.68331 21.3529 2.4653C21.4977 2.24728 21.7907 2.19026 22.0096 2.33449C22.3329 2.54915 22.6495 2.77723 22.9526 3.01537C23.3466 3.3273 23.7306 3.66271 24.0876 4.01489C24.2728 4.19601 24.2762 4.49452 24.0943 4.679C24.0034 4.77291 23.8788 4.81987 23.7575 4.81987L23.7542 4.82323Z" fill="white"/>
</svg>
